<?xml version="1.0" standalone="no"?>
<!DOCTYPE svg PUBLIC "-//W3C//DTD SVG 20010904//EN"
 "http://www.w3.org/TR/2001/REC-SVG-20010904/DTD/svg10.dtd">
<svg version="1.0" xmlns="http://www.w3.org/2000/svg"
 width="1064.000000pt" height="1064.000000pt" viewBox="0 0 1064.000000 1064.000000"
 preserveAspectRatio="xMidYMid meet">
<metadata>
Created by potrace 1.11, written by Peter Selinger 2001-2013
</metadata>
<g transform="translate(0.000000,1064.000000) scale(0.100000,-0.100000)"
fill="#000000" stroke="none">
<path d="M5185 10629 c-4 -5 -17 -14 -28 -20 -12 -5 -29 -13 -37 -19 -51 -32
-263 -150 -270 -150 -6 0 -10 -4 -10 -10 0 -5 -6 -10 -14 -10 -7 0 -19 -7 -26
-15 -7 -9 -15 -13 -18 -10 -3 3 -12 -1 -21 -9 -9 -7 -43 -28 -76 -46 -33 -17
-64 -35 -70 -40 -5 -4 -31 -19 -56 -33 -75 -41 -94 -52 -99 -57 -3 -3 -30 -18
-60 -34 -30 -16 -62 -35 -71 -42 -8 -8 -19 -14 -23 -14 -5 0 -45 -22 -91 -50
-46 -27 -88 -50 -94 -50 -6 0 -11 -4 -11 -9 0 -5 -13 -14 -30 -20 -16 -5 -30
-15 -30 -22 0 -7 -3 -9 -7 -6 -3 4 -20 -2 -37 -12 -69 -43 -103 -62 -136 -78
-19 -10 -37 -21 -40 -24 -5 -5 -55 -34 -160 -92 -30 -16 -59 -33 -65 -37 -9
-7 -29 -19 -135 -78 -25 -14 -61 -35 -80 -47 -19 -12 -42 -25 -50 -28 -8 -4
-31 -17 -50 -28 -19 -12 -53 -32 -75 -44 -22 -13 -96 -56 -165 -95 -69 -40
-150 -86 -180 -103 -30 -17 -57 -33 -60 -36 -3 -4 -16 -12 -30 -18 -14 -7 -47
-25 -75 -41 -279 -162 -395 -228 -420 -241 -16 -9 -32 -18 -35 -21 -4 -4 -39
-24 -95 -54 -11 -6 -22 -13 -25 -16 -3 -3 -14 -10 -25 -16 -103 -56 -144 -80
-167 -95 -14 -11 -29 -19 -32 -19 -3 0 -27 -13 -53 -29 -120 -72 -199 -115
-205 -113 -5 1 -8 -2 -8 -7 0 -5 -8 -11 -17 -14 -10 -4 -36 -17 -58 -31 -22
-14 -62 -37 -90 -52 -27 -14 -61 -34 -75 -44 -14 -10 -35 -21 -47 -24 -13 -4
-23 -11 -23 -16 0 -5 -9 -12 -21 -15 -18 -6 -196 -106 -239 -135 -8 -6 -21
-13 -29 -17 -8 -3 -63 -35 -123 -70 -60 -35 -113 -63 -119 -63 -5 0 -9 -3 -9
-7 0 -5 -31 -24 -68 -43 -37 -19 -69 -38 -72 -41 -3 -3 -15 -11 -28 -18 l-23
-12 3 -2667 c2 -1467 6 -2665 9 -2662 4 3 15 -2 25 -11 11 -9 65 -43 122 -75
57 -32 118 -67 135 -78 18 -10 55 -31 84 -46 28 -15 49 -31 46 -34 -4 -3 0 -6
8 -6 8 0 51 -23 97 -50 46 -28 87 -50 93 -50 5 0 9 -4 9 -10 0 -5 4 -10 10
-10 11 0 308 -170 351 -201 14 -10 29 -16 33 -12 3 3 6 1 6 -5 0 -7 5 -12 10
-12 6 0 44 -20 84 -45 41 -25 79 -45 85 -45 6 0 11 -4 11 -10 0 -5 7 -10 15
-10 8 0 15 -5 15 -12 0 -6 3 -8 7 -5 3 4 11 3 17 -2 11 -9 341 -202 367 -214
8 -4 32 -18 54 -32 22 -14 62 -37 89 -53 27 -15 56 -31 65 -37 9 -5 79 -46
156 -90 77 -44 142 -83 143 -87 2 -5 7 -8 12 -8 12 0 224 -123 228 -132 2 -4
8 -8 12 -8 5 0 53 -25 107 -57 141 -81 154 -88 193 -109 19 -11 37 -22 40 -25
3 -3 79 -47 170 -99 91 -52 167 -96 170 -99 3 -3 25 -16 50 -29 25 -13 79 -44
120 -69 41 -25 98 -57 125 -72 28 -15 68 -39 90 -52 22 -14 47 -29 55 -32 8
-4 33 -19 55 -33 22 -14 52 -30 68 -37 15 -6 27 -15 27 -19 0 -4 4 -8 9 -8 6
0 87 -45 181 -100 94 -55 175 -100 181 -100 5 0 9 -4 9 -8 0 -5 12 -14 27 -21
16 -7 71 -38 123 -69 52 -31 97 -57 100 -57 3 0 17 -8 33 -18 57 -36 81 -50
136 -79 31 -17 63 -36 71 -42 62 -46 90 -46 163 -2 32 19 66 38 77 41 11 4 20
11 20 16 0 5 4 9 10 9 8 0 138 72 180 100 8 6 22 13 30 17 8 3 39 21 68 40 29
18 57 33 62 33 6 0 10 5 10 11 0 5 5 7 10 4 6 -3 10 -2 10 3 0 4 16 14 35 22
19 8 35 17 35 21 0 4 6 9 13 11 10 2 235 130 297 168 50 31 202 119 243 140
26 14 47 28 47 32 0 5 4 8 10 8 5 0 50 24 100 53 49 28 107 61 127 73 21 12
100 58 177 103 76 44 142 81 147 81 5 0 9 5 9 10 0 6 3 9 8 8 4 -1 18 5 32 13
76 49 271 159 279 159 6 0 11 4 11 9 0 5 10 13 23 17 12 4 24 9 27 13 5 6 27
18 125 72 22 12 42 24 45 28 3 3 23 15 45 26 22 10 47 24 55 31 16 12 100 60
137 78 13 6 23 14 23 19 0 4 5 7 10 7 10 0 260 143 324 186 14 9 26 12 26 8 0
-5 4 -4 8 2 7 11 91 62 192 117 30 16 62 36 71 43 8 8 19 14 22 14 4 0 36 18
72 40 36 22 65 36 65 32 0 -4 4 -2 8 4 4 6 27 21 52 35 25 13 47 27 50 30 3 3
34 21 70 40 36 19 69 40 73 47 4 6 16 12 27 12 10 0 20 4 22 9 2 4 35 25 73
46 39 21 72 41 75 44 3 3 30 19 60 35 30 16 57 32 60 35 3 3 34 21 70 40 36
19 76 43 89 53 13 10 30 18 37 18 8 0 14 5 14 10 0 6 6 10 14 10 8 0 21 6 28
13 7 6 31 21 53 32 22 11 42 23 45 26 3 3 37 23 75 44 39 21 72 41 75 44 3 3
27 17 53 31 27 14 53 30 58 37 7 8 -31 82 -130 252 -78 132 -141 245 -141 251
0 5 -4 10 -9 10 -5 0 -15 15 -22 32 -7 18 -25 51 -39 73 -45 72 -50 79 -71
123 -15 30 -26 41 -37 37 -13 -5 -130 -71 -377 -215 -16 -10 -151 -88 -300
-173 -148 -86 -277 -162 -285 -169 -8 -7 -17 -13 -20 -12 -3 1 -22 -10 -42
-22 -21 -13 -42 -24 -47 -24 -5 0 -16 -6 -23 -13 -7 -7 -60 -39 -118 -72 -155
-89 -183 -105 -317 -184 -68 -39 -127 -71 -133 -71 -5 0 -10 -4 -10 -10 0 -5
-6 -10 -14 -10 -8 0 -21 -6 -28 -13 -7 -7 -38 -27 -68 -44 -30 -16 -72 -40
-92 -52 -21 -11 -53 -30 -72 -40 -73 -41 -81 -46 -94 -58 -7 -7 -19 -13 -26
-13 -6 0 -17 -5 -24 -12 -12 -12 -99 -63 -162 -94 -19 -10 -37 -21 -40 -25 -3
-3 -30 -19 -60 -34 -30 -15 -57 -30 -60 -34 -3 -3 -15 -12 -27 -18 -13 -7 -33
-19 -45 -25 -13 -7 -26 -17 -30 -23 -4 -5 -8 -6 -8 -2 0 4 -20 -6 -44 -23 -25
-16 -48 -30 -52 -30 -4 0 -24 -11 -43 -24 -20 -13 -117 -70 -216 -127 -99 -57
-183 -107 -186 -112 -3 -5 -8 -7 -10 -6 -2 2 -49 -24 -104 -56 -55 -33 -111
-66 -125 -73 -14 -7 -47 -26 -75 -43 -27 -16 -62 -35 -77 -42 -16 -6 -28 -15
-28 -19 0 -4 -7 -8 -15 -8 -8 0 -15 -3 -15 -7 0 -5 -20 -17 -45 -28 -25 -11
-45 -22 -45 -25 0 -3 -21 -16 -47 -30 -44 -22 -117 -65 -168 -98 -11 -6 -26
-15 -34 -19 -8 -4 -75 -41 -147 -84 l-133 -77 -46 29 c-25 16 -50 29 -55 29
-6 0 -10 5 -10 10 0 6 -4 10 -10 10 -5 0 -63 32 -129 70 -66 39 -125 70 -131
70 -5 0 -10 5 -10 10 0 6 -4 10 -10 10 -5 0 -50 25 -100 55 -50 30 -95 55
-100 55 -6 0 -10 5 -10 12 0 6 -3 9 -6 5 -3 -3 -29 9 -58 26 -80 50 -81 50
-261 154 -93 54 -176 99 -182 101 -7 2 -13 8 -13 13 0 5 -6 9 -14 9 -8 0 -21
6 -28 13 -7 7 -24 18 -38 24 -14 7 -43 24 -65 37 -22 14 -51 31 -65 39 -34 19
-68 39 -255 147 -88 51 -185 106 -215 123 -30 16 -61 35 -69 41 -20 16 -53 34
-83 47 -16 6 -28 15 -28 20 0 5 -3 8 -7 7 -5 -2 -62 29 -128 68 -66 39 -136
79 -155 90 -19 10 -36 22 -38 27 -2 4 -7 7 -12 7 -8 0 -220 120 -230 130 -3 3
-23 15 -45 26 -22 12 -68 38 -102 58 -362 210 -425 246 -434 246 -5 0 -9 5 -9
10 0 6 -6 10 -14 10 -8 0 -16 3 -18 8 -2 4 -19 15 -38 24 -19 10 -48 26 -65
36 -16 9 -58 34 -93 55 -35 20 -67 37 -72 37 -4 0 -10 3 -12 8 -4 9 -52 37
-101 58 -20 10 -37 21 -37 26 0 4 -4 8 -10 8 -5 0 -31 13 -57 30 l-47 30 -1
1871 c0 1029 3 1873 8 1876 5 3 16 -2 25 -10 9 -8 40 -27 67 -41 28 -14 57
-31 65 -36 31 -20 197 -116 225 -130 17 -8 32 -17 35 -21 5 -5 138 -81 155
-88 6 -2 12 -7 15 -11 3 -4 41 -26 85 -50 44 -24 82 -46 85 -50 3 -4 20 -13
38 -21 17 -8 32 -17 32 -21 0 -5 4 -8 10 -8 5 0 55 -27 111 -60 55 -33 105
-60 110 -60 5 0 9 -3 9 -7 0 -5 10 -13 23 -19 49 -23 112 -59 115 -66 2 -5 10
-8 18 -8 8 0 14 -4 14 -10 0 -5 5 -10 10 -10 11 0 215 -116 337 -192 34 -21
65 -38 67 -38 5 0 106 -60 186 -109 14 -9 27 -16 30 -16 3 0 16 -8 30 -17 55
-35 152 -88 161 -88 5 0 9 -4 9 -8 0 -7 43 -33 60 -37 6 -1 55 -31 92 -56 15
-11 30 -19 32 -19 3 0 43 -22 88 -49 109 -64 314 -183 358 -208 19 -11 73 -43
120 -70 47 -28 101 -60 120 -70 69 -40 265 -153 280 -162 8 -6 60 -36 115 -68
55 -31 102 -61 103 -65 2 -4 9 -8 15 -8 6 0 48 -22 94 -50 46 -27 88 -50 93
-50 6 0 10 -4 10 -10 0 -5 6 -10 13 -10 6 0 23 -9 36 -19 19 -14 28 -16 47 -7
13 6 24 15 24 19 0 5 5 5 10 2 6 -3 10 -1 10 4 0 6 6 11 13 11 8 0 22 9 32 20
10 11 22 20 26 20 10 0 68 36 188 115 29 19 55 35 58 35 2 0 30 17 61 37 72
48 113 72 135 79 9 4 17 10 17 14 0 5 12 15 28 23 47 24 166 99 180 113 7 8
18 14 23 14 6 0 25 10 42 23 18 12 41 27 52 34 11 7 49 30 85 53 36 22 74 46
85 53 11 6 39 24 62 40 23 15 46 27 52 27 6 0 11 5 11 10 0 6 7 10 15 10 8 0
15 5 15 10 0 6 5 10 11 10 6 0 30 14 54 30 24 17 48 30 54 30 6 0 11 5 11 10
0 6 7 10 15 10 8 0 15 5 15 10 0 6 4 10 9 10 8 0 606 370 721 445 19 13 148
93 285 179 138 85 255 160 262 166 7 5 15 10 19 10 4 0 33 18 65 40 32 22 63
40 69 40 5 0 10 5 10 10 0 6 6 10 13 10 7 0 23 9 35 20 12 12 22 18 22 15 0
-3 26 13 59 35 32 22 63 40 69 40 6 0 16 8 21 18 6 9 11 14 11 9 0 -7 50 21
60 34 3 4 21 16 40 27 75 42 175 105 188 118 7 8 17 14 22 14 9 0 201 120 210
131 3 3 15 9 28 13 12 4 22 12 22 17 0 5 5 9 11 9 6 0 30 14 54 30 24 17 48
30 53 30 6 0 12 4 14 8 2 4 32 26 68 47 36 21 67 43 68 47 2 4 8 8 14 8 5 0
29 14 53 30 24 17 46 30 49 30 4 0 47 27 97 60 50 33 92 60 95 60 2 0 60 36
130 80 69 44 129 80 134 80 5 0 10 3 12 8 3 8 146 99 190 121 16 7 28 17 28
22 0 7 -26 26 -75 56 -85 51 -161 98 -165 103 -3 3 -22 14 -42 25 -21 11 -38
23 -38 26 0 4 -11 10 -25 13 -14 4 -25 10 -25 15 0 5 -13 14 -30 21 -16 7 -30
17 -30 23 0 6 -3 8 -6 4 -3 -3 -44 19 -90 49 -46 30 -86 54 -88 54 -3 0 -39
23 -80 50 -42 28 -78 50 -80 50 -3 0 -37 21 -78 48 -40 26 -85 54 -100 61 -16
8 -28 18 -28 23 0 4 -4 8 -9 8 -12 0 -385 232 -389 242 -2 4 -9 8 -15 8 -11 0
-138 77 -164 100 -7 5 -14 10 -17 10 -6 0 -138 82 -146 90 -3 3 -21 14 -40 24
-19 11 -65 39 -101 63 -36 24 -68 43 -71 43 -3 0 -46 27 -96 60 -51 33 -96 60
-102 60 -5 0 -10 5 -10 10 0 6 -4 10 -10 10 -5 0 -41 20 -80 45 -39 25 -74 45
-79 45 -5 0 -11 3 -13 8 -4 10 -86 62 -98 62 -5 0 -10 5 -10 10 0 6 -6 10 -13
10 -7 0 -22 7 -32 15 -23 18 -225 145 -230 145 -2 0 -31 18 -64 40 -33 22 -64
40 -70 40 -5 0 -11 3 -13 8 -1 4 -37 27 -78 52 -41 24 -77 47 -80 50 -3 3 -27
19 -55 35 -27 15 -53 32 -56 37 -3 6 -10 9 -15 9 -5 -1 -17 6 -27 14 -9 8 -20
15 -23 15 -3 0 -26 14 -51 30 -24 17 -46 30 -49 30 -3 0 -10 5 -17 10 -29 24
-103 70 -114 70 -7 0 -13 5 -13 10 0 6 -7 10 -15 10 -8 0 -15 5 -15 10 0 6 -4
10 -9 10 -9 0 -288 171 -308 189 -7 6 -15 11 -18 11 -4 0 -26 14 -50 30 -24
17 -46 30 -49 30 -4 0 -46 26 -94 58 -48 31 -98 63 -112 70 -28 14 -239 146
-255 160 -6 5 -15 11 -21 13 -5 2 -60 36 -122 74 -61 39 -129 80 -149 92 -40
24 -107 31 -118 12z m189 -1121 c83 -50 165 -102 182 -115 17 -13 33 -23 36
-23 3 0 66 -38 139 -85 74 -46 152 -95 174 -108 74 -44 280 -171 290 -179 28
-23 84 -56 88 -52 2 2 12 -5 22 -16 10 -11 22 -20 27 -20 4 0 39 -20 76 -43
158 -103 182 -117 192 -117 5 0 10 -4 10 -8 0 -5 19 -18 43 -31 23 -12 91 -53
150 -91 60 -39 110 -70 112 -70 2 0 24 -13 48 -30 25 -16 50 -30 56 -30 6 0
11 -4 11 -9 0 -5 14 -14 30 -21 17 -7 30 -16 30 -21 0 -5 4 -9 9 -9 10 0 112
-60 121 -71 3 -3 10 -8 16 -10 13 -5 587 -361 594 -369 3 -3 15 -11 28 -17 12
-7 32 -19 45 -25 12 -7 24 -15 27 -18 3 -3 14 -10 25 -17 73 -42 285 -178 285
-182 0 -4 -21 -19 -48 -34 -26 -15 -66 -40 -90 -55 -23 -15 -131 -82 -240
-150 -282 -176 -492 -308 -527 -330 -16 -11 -58 -37 -93 -58 -34 -22 -103 -65
-154 -97 -50 -32 -101 -64 -114 -69 -13 -6 -24 -15 -24 -20 0 -4 -6 -8 -12 -8
-11 0 -51 -25 -121 -73 -10 -6 -40 -25 -67 -42 -160 -99 -213 -131 -280 -176
-41 -27 -84 -53 -95 -58 -11 -5 -51 -30 -88 -55 -37 -25 -71 -46 -76 -46 -5 0
-16 -6 -23 -12 -8 -7 -23 -18 -33 -25 -11 -7 -51 -31 -90 -55 -38 -23 -71 -46
-73 -50 -2 -5 -10 -8 -18 -8 -8 0 -14 -4 -14 -10 0 -5 -3 -9 -7 -8 -5 2 -41
-19 -81 -45 -40 -26 -77 -47 -81 -47 -5 0 -11 -3 -13 -8 -5 -11 -154 -102
-167 -102 -7 0 -10 -4 -7 -9 3 -5 -5 -12 -18 -15 -14 -3 -31 -12 -38 -19 -7
-7 -35 -27 -61 -43 -27 -16 -65 -39 -85 -52 -21 -13 -45 -25 -54 -29 -10 -3
-18 -9 -18 -13 0 -5 -20 -19 -45 -31 -25 -12 -45 -26 -45 -31 0 -14 -21 -5
-100 41 -138 81 -155 91 -170 97 -8 4 -22 12 -30 19 -8 7 -40 26 -70 42 -64
35 -245 139 -277 159 -13 8 -26 14 -29 13 -4 0 -10 3 -13 8 -8 11 -201 123
-212 123 -5 0 -9 3 -9 8 0 4 -10 12 -23 18 -36 17 -112 59 -117 65 -3 3 -36
23 -75 44 -38 21 -71 42 -73 47 -2 4 -8 8 -13 8 -6 0 -119 64 -252 141 -133
78 -256 150 -273 160 -17 9 -42 23 -55 31 -13 7 -26 15 -29 18 -6 6 -50 31
-107 60 -24 12 -43 26 -43 31 0 5 -6 9 -13 9 -7 0 -62 29 -123 65 -60 36 -121
71 -136 78 -16 6 -28 15 -28 19 0 5 -4 8 -10 8 -5 0 -33 15 -62 33 -29 19 -60
37 -68 40 -8 4 -22 11 -30 16 -8 6 -51 31 -95 56 -44 25 -87 50 -95 55 -55 33
-249 145 -267 154 -13 6 -23 14 -23 19 0 4 -5 7 -10 7 -14 0 -340 191 -340
200 0 5 50 35 299 175 20 11 58 34 86 50 90 54 130 76 148 82 9 3 17 9 17 14
0 5 4 9 10 9 5 0 64 32 132 71 67 40 137 80 155 90 58 33 96 55 198 114 55 32
115 66 133 77 17 10 47 26 65 37 17 10 93 53 167 96 74 42 140 81 146 86 6 5
14 6 17 2 4 -3 7 -2 7 4 0 5 21 20 46 34 25 13 53 29 62 34 10 6 48 28 87 50
38 22 79 45 90 52 11 7 27 15 35 20 8 4 47 26 86 50 39 24 77 43 83 43 6 0 11
5 11 10 0 6 4 10 9 10 4 0 85 44 178 98 94 55 177 102 184 105 8 4 21 11 29
17 42 28 172 100 180 100 6 0 10 5 10 10 0 6 4 10 10 10 5 0 42 19 82 43 40
24 80 46 88 50 8 4 24 13 35 20 11 7 52 30 90 51 39 22 72 42 75 46 3 3 25 17
50 29 25 12 65 35 90 51 25 16 49 29 54 29 5 1 77 -40 160 -91z"/>
</g>
</svg>
