<?xml version="1.0" standalone="no"?>
<!DOCTYPE svg PUBLIC "-//W3C//DTD SVG 20010904//EN"
 "http://www.w3.org/TR/2001/REC-SVG-20010904/DTD/svg10.dtd">
<svg version="1.0" xmlns="http://www.w3.org/2000/svg"
 width="700.000000pt" height="700.000000pt" viewBox="0 0 700.000000 700.000000"
 preserveAspectRatio="xMidYMid meet">
<metadata>
Created by potrace 1.11, written by Peter Selinger 2001-2013
</metadata>
<g transform="translate(0.000000,700.000000) scale(0.100000,-0.100000)"
fill="#000000" stroke="none">
<path d="M3425 6421 c-6 -5 -145 -87 -310 -182 -165 -94 -322 -185 -350 -201
-27 -16 -58 -32 -67 -35 -10 -3 -18 -9 -18 -14 0 -5 -4 -9 -9 -9 -4 0 -102
-54 -217 -121 -115 -67 -229 -132 -254 -146 -45 -25 -373 -214 -680 -391 -91
-53 -174 -100 -185 -106 -11 -6 -108 -62 -216 -124 l-196 -113 1 -1455 1
-1456 190 -110 c105 -60 219 -127 255 -148 130 -77 696 -404 725 -419 17 -9
32 -19 33 -23 2 -5 8 -8 14 -8 5 0 50 -25 100 -55 49 -30 91 -55 93 -55 4 0
281 -161 330 -191 17 -11 44 -26 60 -34 17 -9 39 -21 50 -28 31 -19 81 -48
225 -132 74 -43 151 -87 170 -98 19 -11 46 -27 60 -34 14 -8 39 -23 55 -33 17
-11 40 -24 52 -29 12 -6 40 -22 62 -36 22 -14 45 -25 50 -25 4 0 60 30 122 66
211 123 994 577 1024 594 48 27 771 447 870 505 50 29 105 61 124 71 18 11 41
24 50 29 9 6 73 43 144 84 70 40 127 75 127 78 0 4 -198 350 -230 403 -5 8
-28 48 -52 88 -23 39 -45 72 -48 72 -3 0 -37 -18 -75 -41 -39 -22 -88 -51
-110 -64 -183 -104 -505 -291 -527 -306 -15 -11 -29 -19 -32 -19 -2 0 -49 -26
-103 -58 -54 -32 -105 -61 -113 -65 -8 -4 -28 -15 -45 -26 -25 -15 -385 -224
-1013 -589 -101 -58 -116 -64 -134 -53 -12 7 -35 21 -52 31 -17 9 -173 99
-346 200 -173 100 -331 191 -350 202 -19 11 -136 79 -260 151 -306 177 -528
306 -570 330 -19 10 -87 50 -151 88 l-117 68 0 882 c-1 770 1 880 13 875 8 -3
113 -63 232 -132 120 -70 259 -151 308 -179 50 -28 366 -212 703 -408 337
-197 616 -357 619 -357 8 0 142 79 158 92 9 8 574 362 653 409 42 25 605 377
622 389 40 27 637 401 650 407 16 7 74 43 175 109 33 21 64 41 70 44 57 27
324 205 318 211 -5 5 -121 78 -258 163 -138 85 -255 159 -260 164 -6 5 -15 11
-21 13 -5 2 -60 36 -122 74 -62 39 -120 75 -130 80 -9 6 -147 91 -307 191
-408 255 -697 434 -720 447 -11 7 -34 22 -52 34 -17 13 -34 23 -38 23 -3 0
-18 9 -33 19 -97 68 -695 431 -710 431 -10 0 -22 -4 -27 -9z m253 -896 c105
-66 200 -124 210 -130 10 -5 47 -29 83 -51 35 -23 165 -104 289 -181 549 -340
609 -378 606 -381 -2 -2 -322 -202 -712 -446 l-708 -442 -255 149 c-141 82
-270 157 -286 167 -17 9 -87 50 -155 90 -69 40 -141 82 -160 93 -19 11 -48 28
-65 38 -16 10 -52 30 -80 44 -27 15 -57 33 -66 41 -8 8 -18 14 -21 14 -4 0
-84 46 -180 102 -95 55 -190 111 -212 123 -21 12 -38 26 -39 31 0 8 198 131
243 151 8 4 52 28 97 55 45 26 86 48 92 48 5 0 11 4 13 8 2 4 23 19 48 33 25
14 61 35 80 46 19 11 58 32 85 48 100 57 150 86 165 95 8 5 67 39 130 75 63
36 122 70 130 75 8 6 21 13 28 16 8 4 102 58 210 120 174 100 198 112 217 101
12 -7 108 -66 213 -132z"/>
</g>
</svg>
