<svg version="1" xmlns="http://www.w3.org/2000/svg" width="1114.667" height="1114.667" viewBox="0 0 836.000000 836.000000"><path d="M214.8 57.8c-5 .3-4.4-.4-12.4 13.7-.6 1.1-2 3.6-3.1 5.5s-3.6 6.2-5.5 9.5-5.9 10-8.8 15c-2.9 4.9-6.4 11-7.8 13.5-1.4 2.5-4.4 7.6-6.7 11.5-2.2 3.8-4.4 7.7-4.8 8.5-.4.8-1.6 2.8-2.7 4.5-1.1 1.6-2.3 3.6-2.7 4.4-.3.8-3.5 6.3-7 12.3-3.5 6-6.3 11.3-6.3 11.9 0 .5-.3.9-.8.9-.4 0-1.8 2.1-3.2 4.7-1.4 2.7-4.9 8.8-7.7 13.6-2.9 4.8-5.3 9.2-5.3 9.7 0 .6-.4 1-1 1-.5 0-1 .4-1 .9 0 .9-5.3 10.6-8.8 16.1-.9 1.4-1.5 2.8-1.4 3.2.1.5-.2.8-.7.8-.5 0-1.3.9-1.6 2.1-.4 1.2-2.4 4.9-4.4 8.3-7.3 11.9-13.9 23.2-16.3 27.6-1.3 2.5-3.6 6.4-5.1 8.7-1.5 2.4-2.7 4.4-2.7 4.7 0 .2-2.4 4.3-5.3 9.2-2.9 4.9-5.6 9.6-6 10.4-.4.8-1.5 2.8-2.6 4.5-1 1.6-2.7 4.6-3.8 6.5-1.1 1.9-3.4 5.9-5.2 8.8-1.7 2.9-3.1 5.7-3.1 6.2 0 .6-.4 1-1 1-.5 0-1 .4-1 .9s-2 4.4-4.5 8.5c-2.5 4.2-4.5 8.1-4.5 8.6 0 .6-.4 1-1 1-.5 0-1 .4-1 .9s-1.9 4.2-4.3 8.3c-2.4 4-5.5 9.3-6.9 11.8-9.4 16.7-19.5 33.7-20.5 34.8-.7.7-1.3 1.8-1.3 2.3 0 .6-1.6 3.4-3.5 6.4-1.9 3-3.1 5.5-2.7 5.5.4 0 .2.4-.3.8-1.3.8-5.5 8-5.5 9.2 0 1.3 14.2 25.4 15.2 25.8.4.2.8 1 .8 1.8 0 .7 1.5 3.7 3.3 6.6 1.9 2.9 4.5 7.3 5.9 9.8 3.8 6.7 6.2 10.9 9.8 17 3.4 5.7 5.6 9.4 9.1 15.7 1.2 2.1 2.5 4.2 2.9 4.8.4.5 2.4 4.1 4.5 8 2.1 3.8 4.3 7.7 4.9 8.5.7.8 2.1 3.2 3.1 5.2 1.1 2.1 2.4 3.8 2.9 3.8s.7.3.4.6c-.4.3 2 5 5.3 10.5 3.2 5.4 5.9 10.4 5.9 10.9 0 .6.5 1 1 1 .6 0 1 .5 1 1 0 .6 1.1 2.7 2.3 4.8 1.3 2 3.5 5.7 4.9 8.2 10.8 19.2 19.3 33.6 20 33.8.4.2.8.8.8 1.2 0 .8 4.8 9.6 8.5 15.5.7 1.1 1.2 2.2 1.1 2.5 0 .3 1.4 2.6 3.2 5.2 1.8 2.6 3.2 4.9 3.2 5.1 0 .3 4.3 7.8 9.6 16.8s10.6 18.2 11.9 20.4c1.2 2.2 6.4 11.2 11.5 20s10.1 17.3 11 19c6.5 11.3 9 15.6 11.7 20.1 1.7 2.7 4.1 7 5.5 9.5 1.4 2.4 6.7 11.6 11.8 20.4 5.2 8.8 10.4 17.9 11.8 20.2 2.6 4.7 2.8 4.8 17.7 4.3 3.3-.1 6.6-.1 7.3-.1 8 .3 27.4.2 27.9-.2.3-.3 1.5-.2 2.8.3 1.3.5 2.5.7 2.7.5.2-.2 1.9-.4 3.8-.5 4-.1 24.8-.1 27-.1.8.1 6.2.1 12 0h12c.8.1 6.2.1 12 0h12c.8.1 6.2.1 12 0h12c.8.1 6.2.1 12 0h12c.8.1 6.2.1 12 0h12c.8.1 6.2.1 12 0h12c.8.1 6.2.1 12 0h12c.8.1 6.2.1 12 0h52c.8.1 6.2.1 12 0h12c.8.1 6.2.1 12 0h12c.8.1 6.2.1 12 0h12c19.2.5 22.4.2 24.1-2.1 1-1.2 1.5-2.6 1.3-3-.3-.4-.1-.8.4-.8.6 0 1.5-1.2 2.1-2.8.6-1.5 2.8-5.4 4.7-8.7 4.1-6.7 6.5-11 10.2-17.4 1.4-2.5 3.8-6.8 5.5-9.5 1.6-2.8 4.1-7.1 5.5-9.6 1.4-2.5 3.4-6.1 4.5-8 1.1-1.9 3.3-5.8 4.9-8.5 1.6-2.8 3.3-5.7 3.8-6.5 1.5-2.2 14.9-25.7 18.3-32 1.6-3 3.3-6 3.7-6.5.4-.6 1.7-2.6 2.7-4.5 1.1-1.9 12.5-21.7 25.3-44 21.2-36.9 26.2-45.5 29.4-51.5.6-1.1 1.3-2.2 1.6-2.5.3-.3 1-1.4 1.6-2.5 4.6-8.5 8.3-14.9 11.6-20.3 2.1-3.4 3.8-6.4 3.8-6.6 0-.2 2.3-4.3 5.1-9.2 2.9-4.9 6.5-11.4 8.2-14.4 1.7-3 3.3-5.7 3.7-6 .3-.3 1.9-3 3.4-6 1.6-3 3.4-6.2 4.2-7.1.8-.9 1.2-1.8.9-2.1-.3-.3.1-1.1 1-1.8.8-.7 1.5-1.9 1.5-2.6 0-.8.5-1.4 1-1.4.6 0 1-.4 1-1 0-.5 2-4.3 4.4-8.4 2.4-4.1 4.7-8.4 5.1-9.5.3-1.2 1.1-2.1 1.6-2.1s.9-.4.9-.9c0-.4 4.7-9 10.5-19.1 5.8-10 10.5-18.5 10.5-18.9 0-1.4-2.5-6.1-3.2-6.1-.5 0-.8-.4-.8-.9s-5-9.7-11.1-20.3c-12.2-21-14-24.1-17.6-30.6-1.3-2.3-5.3-9.3-8.9-15.4-3.5-6.1-6.4-11.5-6.4-11.9 0-.5-.4-.9-.8-.9s-1.3-1.2-1.9-2.8c-.7-1.5-2.3-4.5-3.7-6.7-1.3-2.2-3.7-6.4-5.2-9.3-1.5-2.8-3.1-5.2-3.6-5.2-.4 0-.8-.9-.8-2s-.3-2-.7-2c-.5 0-1.3-1-1.9-2.3-3.7-7.4-6.8-12.7-7.5-12.7-.5 0-.9-.7-.9-1.6 0-.8-1.1-3.2-2.5-5.2s-2.5-4.2-2.5-4.9c0-.7-.4-1.3-.9-1.3s-1.1-.8-1.4-1.8c-.4-.9-1.8-3.7-3.3-6.2-11-18.6-13.9-23.6-13.9-24 0-.3-.8-1.6-1.6-3-2.1-3.3-20.3-34.9-24.2-42-1.6-3-3.7-6.3-4.5-7.3-.8-.9-1.1-1.7-.6-1.7.5 0 .5-.4-.1-.8-.5-.4-1.6-1.8-2.3-3.1-5.5-9.6-8.4-14.8-12.1-20.9-1.7-2.9-3.1-5.4-3.1-5.6 0-.2-3.6-6.5-8-14s-8-14.1-8-14.6c0-.6-.4-1-1-1-.5 0-1-.4-1-1 0-.7-11.1-20.5-19-34-.5-.8-3.7-6.5-7.2-12.5-3.4-6.1-6.4-11.2-6.7-11.5-.4-.3-1.8-2.8-3.3-5.5-1.5-2.8-3.3-5.1-4-5.1-.7-.1-1.5-.2-1.8-.3-1.1-.3-401.8-.6-406.2-.3zm374.4 70.5c1.8 2.9 3.5 5.7 3.8 6.2.6 1.3 10.8 18.4 13.8 23.3 1.2 2 2.5 4.4 2.9 5.2.3.8 1.1 2.2 1.8 3 .7.8 2.3 3.5 3.6 6 1.3 2.5 2.6 4.7 2.9 5 .9.8 5 8.1 5 8.8 0 .4-76.8.7-170.7.7-168.9 0-170.6.1-171.7 2-.6 1.1-1.4 2.2-1.7 2.5-.3.3-1.8 2.6-3.2 5.2-1.4 2.5-3.7 6.4-5.1 8.7-1.4 2.2-2.6 4.5-2.6 5.1 0 .5-.4 1-1 1-.5 0-1 .4-1 .9s-4.8 9.1-10.7 19c-14.3 24.1-13 21.9-23.4 39.9-5.1 8.6-9.8 16.4-10.5 17.2-.7.8-1.4 1.9-1.5 2.5-.2 1.1-1.6 3.5-6.6 11.2-1.8 2.9-3.3 5.5-3.3 5.8 0 .2-1.8 3.4-4 7s-4 7-4 7.5c0 .6-.4 1-.9 1s-1.4 1.2-2 2.7c-.6 1.6-3.6 6.8-6.6 11.8-3.1 4.9-5.8 9.8-6.1 10.7-.4 1-1 1.8-1.5 1.8s-.9.4-.9.9-3.4 6.6-7.5 13.6c-4.1 6.9-7.5 13-7.5 13.4 0 .5-.7 1.4-1.5 2.1-.8.7-1.5 2-1.5 2.9 0 1.5 13.2 1.6 164.2 1.6l164.3-.1 2.2 2.4c1.2 1.3 2.1 2.7 2 3.1 0 .3 1.1 2.5 2.6 4.8 1.5 2.4 2.7 4.7 2.7 5.3 0 .5.5 1 1 1 .6 0 1 .4 1 .9s2 4.3 4.5 8.5l4.5 7.6-7.7 12.2c-4.2 6.8-8.3 13.1-9.1 14-.8 1-1.2 1.8-.8 1.8.4 0 0 .8-1 1.8-1.7 1.6-11 1.7-166 1.8-90.4 0-164.5.2-164.8.5-.4.4 8.2 15.1 10.4 17.6.5.7 1 1.5 1 1.8 0 .4 4.5 8.1 10 17.1 5.5 9.1 10 16.9 10 17.5 0 .5.5.9 1 .9.6 0 1 .5 1 1 0 .6 1.2 2.9 2.7 5.3 1.5 2.3 3.2 5.1 3.8 6.2 2 3.5 4 6.9 4.8 7.9 1.5 2 41.6 69.1 43.8 73.3 1.3 2.4 2.7 4.3 3.1 4.3.5 0 .7.4.3.9-.3.5-.1 1.2.3 1.5.5.3 4.6 6.7 9.1 14.3 8.6 14.4 8.7 14.6 13.7 22.7l3.1 5.1h169.7c93.3-.1 169.6.3 169.6.7 0 .4-2 4.2-4.5 8.4-2.5 4.1-4.5 8-4.5 8.5s-.4.9-.9.9-1.1.8-1.4 1.7c-.3 1-2.1 4.3-3.9 7.5-1.8 3.1-5.5 9.6-8.3 14.4-5.5 9.6-6.7 11.7-10.7 18.5l-2.7 4.7H246l-5.8-9.9c-3.1-5.4-6.6-11.3-7.6-13.1-1.1-1.8-2-3.5-2.1-3.8 0-.3-.8-1.6-1.7-3-.9-1.4-6-10.2-11.3-19.5-9.4-16.4-19.5-33.9-22-38-.7-1.1-1.3-2.5-1.4-3-.1-.6-.8-1.7-1.5-2.5s-3.9-6.2-7.2-12c-3.2-5.8-6.1-10.7-6.4-11-.5-.5-1-1.3-5.6-9.9-1.6-2.9-3.4-6-3.9-6.9-6.8-11.4-8.5-14.4-8.5-14.8 0-.3-1.3-2.5-3-4.8-1.6-2.4-2.6-4.6-2.3-5 .4-.3.1-.6-.5-.6-.7 0-1.2-.4-1.2-1 0-.5-2-4.3-4.5-8.3-2.5-4.1-4.5-8-4.5-8.6 0-.6-.4-1.1-.9-1.1s-1.4-1.2-2-2.8c-1.3-3.1-5.4-10.1-7.1-12-.6-.6-.8-1.2-.5-1.2.4 0-.3-1.3-1.4-2.9-1.2-1.6-2.1-3.2-2.1-3.5 0-.5-7.1-12.6-10.9-18.6-.8-1.4-1.4-2.8-1.3-3.3.1-.4-.3-.7-.8-.7-.6 0-1-.4-1-.9s-1.9-4.2-4.3-8.3c-2.4-4-5.5-9.3-6.9-11.8-1.4-2.5-5.8-10.1-9.8-17-4-6.9-8.1-14.1-9.2-16-1.1-1.9-4-7-6.5-11.2l-4.4-7.7 2.9-5.5c1.7-3 3.7-6.5 4.5-7.7 2.9-4.6 7.8-13.4 8.4-15.2.3-.9.8-1.7 1.2-1.7.4 0 1.3-1.6 2.1-3.5s1.7-3.5 2-3.5c.4 0 1.7-2.3 3-5 1.3-2.8 2.7-5 3.2-5 .4 0 .8-.5.8-1 0-.6 4.1-8 9-16.5 5-8.5 9-15.7 9-16 0-.4 1.1-2.1 2.5-3.9 1.4-1.8 2.5-3.6 2.5-3.9 0-.4 7.4-13.4 16.4-28.9 9-15.6 17.3-29.9 18.4-31.9 4.3-7.7 4.7-8.4 5.2-8.9.3-.3 1.2-1.9 2.1-3.5.9-1.7 4.2-7.5 7.4-13 6.2-10.8 23.5-40.8 26.8-46.5 1.1-1.9 2.7-4.9 3.5-6.5.9-1.7 1.8-3.2 2.2-3.5.6-.5 1.9-2.7 8.5-14.5 3.7-6.7 9-15.9 10.7-18.5.9-1.4 2.5-4.1 3.5-6 1-1.9 4.7-8.3 8.1-14.1l6.3-10.7H416l169.9-.1 3.3 5.2z"/></svg>