<svg xmlns="http://www.w3.org/2000/svg" xmlns:xlink="http://www.w3.org/1999/xlink" viewBox="42.5 0 554.9 640">
    <path d="M43.2 480l-.7-320.4L320.3 0l277.2 160-.7 319.6L320.3 640 43.2 480z" fill-opacity="0" stroke="#000" stroke-width="2" />
    <path d="M88.7 452L88 184.8 320 51.5 551.3 185l-.5 266.8-230.8 133.8L88.7 452.1z" fill-opacity="0" stroke="#000" stroke-width="2" />
    <path d="M135 427l-.5-214.2L320.2 106l185.3 107-.5 213.6-184.8 107.2L135 427z" fill-opacity="0" stroke="#000" stroke-width="2" />
    <path d="M88.5 185.1L43 159.9l45.6 25.2z" fill-opacity="0" stroke="#000" />
    <path d="M596.9 160.3l-46.4 25 46.4-25z" fill-opacity="0" stroke="#000" />
    <path d="M135.5 426.7l-46.3 24.9 46.3-24.9z" fill-opacity="0" stroke="#000" />
    <path d="M550 451.3L504.4 426l45.6 25.1z" fill-opacity="0" stroke="#000" />
    <path d="M320.2 106.7l-.3-54.7.3 54.7z" fill-opacity="0" stroke="#000" />
    <path d="M320.3 639.6l-.3-54.7.3 54.7z" fill-opacity="0" stroke="#000" />
    <path d="M204.6 253.6l115 67 107-67-107-66.5-115.4 66.4v132.6L319.4 453l120.6-70" fill-opacity="0" stroke="#000" stroke-width="25" />
</svg>
